<svg width="100%" height="100%" viewBox="0 0 290 58" fill="none" xmlns="http://www.w3.org/2000/svg">
<path d="M18.7948 2.32787C16.4987 2.67412 13.3042 3.62632 11.707 4.31883C7.81369 6.0501 2.72247 11.2439 1.92384 14.1871C1.62436 15.4855 1.22505 16.9571 1.02539 17.4765C0.825737 17.9959 1.12522 20.16 1.62436 22.3241C3.32143 29.2491 12.3059 35.0489 21.2905 35.1355C26.182 35.1355 29.4763 36.3474 29.4763 38.1652C29.4763 41.8009 18.1958 42.0606 12.5056 38.598L9.31111 36.6936L5.31799 39.983C-0.372197 44.8306 -1.07099 46.1291 1.22505 48.2931C7.11489 54.0063 22.9875 56.7764 32.1717 53.7467C42.5538 50.2841 49.0426 40.8487 46.4471 32.7117C44.4505 25.9597 35.0667 21.2853 23.5865 21.2853C21.5899 21.2853 18.9944 20.7659 17.9961 20.0734C16.3989 19.0346 16.2991 18.6884 17.3972 17.4765C19.4935 15.3124 27.1803 15.6587 32.9703 18.2556C35.6657 19.3809 37.9617 20.2465 37.9617 20.16C38.0615 20.0734 40.0581 17.7362 42.5538 14.8796L46.8464 9.8589L44.4505 8.04107C37.9617 3.45319 26.8808 0.942848 18.7948 2.32787Z" fill="white"/>
<path d="M121.041 17.2569C119.145 17.6031 116.549 18.3822 115.351 18.9016C113.654 19.6806 112.656 19.6806 110.36 18.6419C106.766 16.9972 97.3822 16.9972 93.8883 18.5553C91.4924 19.6806 91.0931 19.6806 91.0931 18.5553C91.0931 17.6031 89.4958 17.3434 84.1051 17.3434H77.1172V35.9546V54.6523L84.4046 54.3927L91.5922 54.133V42.7931C91.5922 30.328 92.3909 28.337 96.9829 28.7698C100.976 29.2026 102.074 32.1458 102.074 43.4856V53.7001H109.561H117.048V42.7931C117.048 36.8202 117.547 31.1936 118.047 30.2414C119.245 28.4236 123.437 27.9908 124.735 29.6355C125.134 30.2414 125.733 36.0412 126.033 42.4469L126.532 54.133L133.819 54.3927L141.207 54.6523L140.807 40.5425C140.508 25.4804 139.31 21.2388 134.618 18.6419C131.923 17.0837 125.434 16.3912 121.041 17.2569Z" fill="white"/>
<path d="M160.057 17.568C147.878 20.8574 141.489 29.9466 144.484 39.988C149.276 56.0888 173.434 59.9842 184.415 46.3937C187.011 43.1908 187.51 41.6327 187.809 36.3523C188.309 28.9944 186.212 24.3199 180.821 20.8574C175.431 17.3083 166.446 15.9233 160.057 17.568ZM172.037 30.6391C173.334 31.7644 174.033 33.4957 174.033 35.8329C174.033 40.2476 171.338 42.758 166.546 42.758C159.259 42.758 155.365 35.4001 160.257 30.8988C163.052 28.3019 169.142 28.1287 172.037 30.6391Z" fill="white"/>
<path d="M247.074 30.1239C247.074 42.1563 247.274 43.7144 249.37 47.177C253.164 53.7558 263.446 56.2661 270.833 52.3708C274.727 50.2932 275.026 50.2932 275.026 51.938C275.026 52.9767 276.523 53.2364 282.513 53.2364H290V35.0581V16.8797H282.513H275.026V25.9689C275.026 36.1834 273.628 39.9056 269.635 40.7712C266.541 41.3772 263.246 39.819 262.048 37.1356C261.449 35.9237 261.35 30.9896 261.749 25.9689L262.348 16.8797H254.761H247.074V30.1239Z" fill="white"/>
<path d="M61.7767 0.0151711C61.0186 0.0720673 59.8616 0.608494 59.4427 1.09616C59.0836 1.51067 59.0437 1.86829 58.944 5.72894C58.8642 9.49206 58.8043 9.93908 58.5051 10.1748C57.3879 10.9957 55.3132 10.9469 54.236 10.061C53.8769 9.7684 53.857 9.45955 53.7971 5.32256C53.7772 2.88425 53.6974 0.844196 53.6575 0.787304C53.5777 0.706028 53.2984 0.738537 52.5403 0.909218C50.0068 1.47003 48.2114 2.87612 47.4733 4.87553C47.1142 5.85085 47.0544 10.1341 47.3935 11.5809C47.7725 13.3446 49.528 15.9048 51.4631 17.571C52.6002 18.5463 54.7746 20.0418 56.3506 20.9277L57.5874 21.6186L57.4677 23.6505C57.3879 24.764 57.2084 27.9094 57.0488 30.6403C56.8892 33.3631 56.6299 37.8821 56.4503 40.678C56.2907 43.4739 56.0513 47.3265 55.9317 49.2527C55.812 51.1709 55.7322 53.3491 55.792 54.0887C55.8519 55.3078 55.9117 55.4704 56.3506 55.8361C57.4478 56.7546 60.0212 57.4861 62.4151 57.5592C66.0657 57.6811 69.3972 56.6896 70.3149 55.2103C70.5343 54.8527 70.4146 52.8533 69.5169 42.2629C69.4172 41.0112 68.9982 35.8502 68.5993 30.7866L67.8612 21.5942L69.6765 20.4807C73.1077 18.3838 75.9804 15.7341 77.0776 13.6128C77.8157 12.1579 77.9354 11.3614 77.8357 7.88278C77.7758 4.79425 77.7359 4.50166 77.3369 3.87582C76.4392 2.48599 74.8433 1.47003 72.8085 0.974239C71.1926 0.592239 71.3123 0.242748 71.3123 5.13562C71.3123 8.07784 71.2325 9.61398 71.0929 9.83342C70.9732 10.0122 70.5343 10.2886 70.0954 10.4755C69.4172 10.7437 69.2376 10.7844 68.699 10.7356C67.7614 10.6624 67.0033 10.4024 66.6044 10.0204C66.2652 9.70338 66.2253 9.29699 66.1256 5.64766C66.0258 2.9574 65.9261 1.52692 65.7665 1.33998C65.0483 0.437813 63.4125 -0.0986137 61.7767 0.0151711Z" fill="white"/>
<path d="M224.494 3.11625L217.506 4.93409L217.206 24.4109C217.006 43.2818 217.006 44.0608 219.302 47.6965C223.096 53.9291 230.583 56.0066 240.366 53.6694C243.96 52.8038 244.16 52.6306 243.561 50.0337C241.664 41.8968 240.965 40.7714 238.07 40.7714C232.879 40.7714 232.48 39.473 231.981 19.6499L231.481 1.29842L224.494 3.11625Z" fill="white"/>
<path d="M197.54 4.41459L190.552 6.23243L190.252 25.7092C190.053 44.5801 190.053 45.3592 192.349 48.9949C196.142 55.2274 203.629 57.305 213.413 54.9677C217.006 54.1021 217.206 53.929 216.607 51.3321C214.71 43.1951 214.011 42.0698 211.116 42.0698C205.925 42.0698 205.526 40.7713 205.027 20.9482L204.528 2.59676L197.54 4.41459Z" fill="white"/>
</svg>
